<?xml version="1.0" encoding="UTF-8"?>
<svg width="102.72mm" height="131.83mm" version="1.1" viewBox="0 0 102.72 131.83" xmlns="http://www.w3.org/2000/svg">
<g transform="translate(-105.72 -116.69)">
<path x="125.41727" y="121.52135" width="49.22356" height="121.47962" rx="0" ry="0" d="m105.89 128.41 28.504-0.12729c7.7347-0.0345 15.686 6.8371 17.739 15.334l23.945 99.084-30.777-0.40505c-6.2918-0.0828-12.746-5.6795-14.429-12.51z" fill="none" stroke="#a50b0f" stroke-width=".272" style="paint-order:fill markers stroke"/>
<path x="132.84494" y="110.11735" width="49.215401" height="121.47326" rx="0" ry="0" d="m113.32 117.01 28.497-0.12728c7.7347-0.0345 15.686 6.8371 17.739 15.334l23.941 99.078-30.77-0.40501c-6.2918-0.0828-12.746-5.6795-14.429-12.51z" fill="none" stroke="#f5f5f4" stroke-width=".372"/>
<path x="138.59436" y="115.19355" width="49.22356" height="121.47962" rx="0" ry="0" d="m119.17 121.28 28.504-0.12729c7.7347-0.0345 15.686 6.8371 17.739 15.334l23.945 99.084-30.777-0.40505c-6.2918-0.0828-12.746-5.6795-14.429-12.51z" fill="#e71c24" fill-rule="evenodd" stroke-width=".272"/>
<path x="157.47583" y="127.10107" width="49.22356" height="121.47962" rx="0" ry="0" d="m137.95 133.99 28.504-0.12729c7.7347-0.0345 15.686 6.8371 17.739 15.334l23.945 99.084-30.777-0.40505c-6.2918-0.0828-12.746-5.6795-14.429-12.51z" fill="none" stroke="#a50b0f" stroke-width=".472"/>
</g>
</svg>