<?xml version="1.0" encoding="UTF-8" standalone="no"?>
<!-- Created with Inkscape (http://www.inkscape.org/) -->

<svg
   width="137.76903mm"
   height="16.993311mm"
   viewBox="0 0 137.76902 16.993311"
   version="1.1"
   id="svg5"
   inkscape:version="1.1.2 (0a00cf5339, 2022-02-04)"
   sodipodi:docname="kontakt.svg"
   xmlns:inkscape="http://www.inkscape.org/namespaces/inkscape"
   xmlns:sodipodi="http://sodipodi.sourceforge.net/DTD/sodipodi-0.dtd"
   xmlns="http://www.w3.org/2000/svg"
   xmlns:svg="http://www.w3.org/2000/svg">
  <sodipodi:namedview
     id="namedview7"
     pagecolor="#505050"
     bordercolor="#eeeeee"
     borderopacity="1"
     inkscape:pageshadow="0"
     inkscape:pageopacity="0"
     inkscape:pagecheckerboard="0"
     inkscape:document-units="mm"
     showgrid="false"
     inkscape:zoom="0.69664703"
     inkscape:cx="193.06764"
     inkscape:cy="36.603903"
     inkscape:window-width="1850"
     inkscape:window-height="1016"
     inkscape:window-x="0"
     inkscape:window-y="0"
     inkscape:window-maximized="1"
     inkscape:current-layer="layer1"
     fit-margin-top="0"
     fit-margin-left="0"
     fit-margin-right="0"
     fit-margin-bottom="0" />
  <defs
     id="defs2" />
  <g
     inkscape:label="Layer 1"
     inkscape:groupmode="layer"
     id="layer1"
     transform="translate(-54.340748,-139.14671)">
    <path
       id="text13223"
       style="font-style:normal;font-weight:normal;font-size:25.9296px;line-height:1.25;font-family:sans-serif;opacity:0.16;mix-blend-mode:normal;fill:#ffffff;fill-opacity:0;stroke:#ffffff;stroke-width:2.26772;stroke-miterlimit:4;stroke-dasharray:none;stroke-opacity:1"
       d="M 396.56055 1.1347656 L 396.56055 61.730469 L 417.72656 61.730469 L 417.72656 47.320312 L 423.49023 42.685547 L 442.01172 61.730469 L 466.64844 61.730469 L 441.1875 36.845703 L 464.94336 17.996094 L 440.54102 17.996094 L 417.72656 37.3125 L 417.72656 1.1347656 L 396.56055 1.1347656 z M 1.1347656 3.7421875 L 1.1347656 61.730469 L 23.712891 61.730469 L 23.712891 42.763672 L 29.003906 38.519531 L 55.169922 61.730469 L 82.865234 61.730469 L 46.939453 30.574219 L 81.160156 3.7421875 L 54.994141 3.7421875 L 23.712891 29.990234 L 23.712891 3.7421875 L 1.1347656 3.7421875 z M 262.49805 5.4960938 L 262.49805 17.996094 L 253.79492 17.996094 L 253.79492 27.498047 L 262.49805 27.498047 L 262.49805 47.943359 C 262.49805 53.291588 264.49578 57.07055 268.49414 59.277344 C 272.5317 61.484137 278.66652 62.585938 286.89844 62.585938 C 290.5832 62.585938 293.70007 62.469989 296.24805 62.236328 C 298.79602 62.02863 301.20689 61.729278 303.48047 61.339844 L 303.48047 51.720703 L 301.7168 51.720703 C 301.0112 51.980326 299.75631 52.266578 297.95312 52.578125 C 296.18914 52.889672 294.75774 53.044922 293.66016 53.044922 C 290.99458 53.044922 288.95611 52.784871 287.54492 52.265625 C 286.17294 51.720417 285.21286 50.994617 284.66406 50.085938 C 284.07607 49.177258 283.76381 48.152106 283.72461 47.009766 C 283.68541 45.867425 283.66406 44.529821 283.66406 42.998047 L 283.66406 27.498047 L 303.48047 27.498047 L 303.48047 17.996094 L 283.66406 17.996094 L 283.66406 5.4960938 L 262.49805 5.4960938 z M 478.58398 5.4960938 L 478.58398 17.996094 L 469.88281 17.996094 L 469.88281 27.498047 L 478.58398 27.498047 L 478.58398 47.943359 C 478.58398 53.291588 480.58367 57.07055 484.58203 59.277344 C 488.61959 61.484137 494.75442 62.585938 502.98633 62.585938 C 506.67109 62.585938 509.78796 62.469989 512.33594 62.236328 C 514.88391 62.02863 517.29478 61.729278 519.56836 61.339844 L 519.56836 51.720703 L 517.80469 51.720703 C 517.09909 51.980326 515.8442 52.266578 514.04102 52.578125 C 512.27703 52.889672 510.84564 53.044922 509.74805 53.044922 C 507.08248 53.044922 505.044 52.784871 503.63281 52.265625 C 502.26083 51.720417 501.30075 50.994617 500.75195 50.085938 C 500.16396 49.177258 499.84975 48.152106 499.81055 47.009766 C 499.77135 45.867425 499.75195 44.529821 499.75195 42.998047 L 499.75195 27.498047 L 519.56836 27.498047 L 519.56836 17.996094 L 499.75195 17.996094 L 499.75195 5.4960938 L 478.58398 5.4960938 z M 124.14258 16.632812 C 112.7747 16.632813 103.89539 18.69817 97.505859 22.826172 C 91.155526 26.954174 87.980469 32.639338 87.980469 39.882812 C 87.980469 47.074363 91.136132 52.746427 97.447266 56.900391 C 103.7976 61.028392 112.6963 63.09375 124.14258 63.09375 C 135.58886 63.09375 144.46621 61.028392 150.77734 56.900391 C 157.12768 52.746427 160.30469 47.074363 160.30469 39.882812 C 160.30469 32.691262 157.14902 27.019198 150.83789 22.865234 C 144.56596 18.71127 135.66726 16.632812 124.14258 16.632812 z M 342.99414 16.75 C 337.93739 16.75 332.87901 17.023152 327.82227 17.568359 C 322.80472 18.087605 319.17969 18.542206 316.94531 18.931641 L 316.94531 29.484375 L 318.88477 29.484375 C 320.60955 29.043016 323.45295 28.420065 327.41211 27.615234 C 331.37127 26.784442 335.09522 26.369141 338.58398 26.369141 C 344.38552 26.369141 348.77474 26.836842 351.75391 27.771484 C 354.73307 28.680164 356.22266 30.341368 356.22266 32.755859 L 356.22266 32.990234 C 349.98992 33.223895 343.97341 33.586795 338.17188 34.080078 C 332.37034 34.573361 327.5098 35.403963 323.58984 36.572266 C 319.63069 37.740568 316.57199 39.338224 314.41602 41.363281 C 312.26004 43.388339 311.18359 45.996093 311.18359 49.189453 C 311.18359 53.187644 313.29965 56.472703 317.5332 59.042969 C 321.76676 61.613234 327.01908 62.898438 333.29102 62.898438 C 335.95659 62.898437 338.40625 62.743188 340.64062 62.431641 C 342.875 62.146056 345.0318 61.691454 347.10938 61.068359 C 348.59896 60.601038 350.18746 59.964987 351.87305 59.160156 C 353.55863 58.355326 354.96868 57.666873 356.10547 57.095703 L 356.10547 61.730469 L 377.09766 61.730469 L 377.09766 31.976562 C 377.09766 26.732183 374.41136 22.889673 369.04102 20.449219 C 363.70987 17.982803 355.02841 16.75 342.99414 16.75 z M 219.04492 16.789062 C 214.81137 16.789062 210.9497 17.309165 207.46094 18.347656 C 204.01137 19.386147 200.40574 20.879001 196.64258 22.826172 L 196.64258 17.996094 L 175.47461 17.996094 L 175.47461 61.730469 L 196.64258 61.730469 L 196.64258 30.730469 C 198.95535 29.821789 201.0908 29.159537 203.05078 28.744141 C 205.04996 28.328744 207.01086 28.121094 208.93164 28.121094 C 211.63641 28.121094 213.73307 28.341844 215.22266 28.783203 C 216.75144 29.224562 217.90741 29.926115 218.69141 30.886719 C 219.3578 31.717512 219.82912 33.015815 220.10352 34.78125 C 220.37791 36.520722 220.51367 38.273628 220.51367 40.039062 L 220.51367 61.730469 L 241.79883 61.730469 L 241.79883 33.261719 C 241.79883 27.783679 239.7817 23.66997 235.74414 20.917969 C 231.74578 18.165968 226.17925 16.789062 219.04492 16.789062 z M 124.14258 26.408203 C 126.18096 26.408203 128.08172 26.628954 129.8457 27.070312 C 131.60968 27.511671 133.11866 28.263672 134.37305 29.328125 C 135.62743 30.366616 136.60691 31.756621 137.3125 33.496094 C 138.01809 35.235566 138.37109 37.390672 138.37109 39.960938 C 138.37109 42.738901 138.01809 44.920207 137.3125 46.503906 C 136.64611 48.061643 135.62784 49.397294 134.25586 50.513672 C 133.04067 51.526201 131.55109 52.253954 129.78711 52.695312 C 128.06233 53.110709 126.23914 53.318359 124.31836 53.318359 C 122.08398 53.318359 120.08429 53.084508 118.32031 52.617188 C 116.59553 52.149867 115.10595 51.409013 113.85156 50.396484 C 112.55798 49.332031 111.5785 47.930879 110.91211 46.191406 C 110.24572 44.425971 109.91211 42.349467 109.91211 39.960938 C 109.91211 37.286823 110.2845 35.066216 111.0293 33.300781 C 111.81329 31.535346 112.8529 30.147294 114.14648 29.134766 C 115.59687 28.04435 117.10584 27.316597 118.67383 26.953125 C 120.28101 26.589653 122.1042 26.408203 124.14258 26.408203 z M 356.10547 41.207031 L 356.10547 50.320312 C 354.45909 51.254954 352.53893 52.006955 350.34375 52.578125 C 348.18777 53.149295 346.05037 53.435547 343.93359 53.435547 C 341.26802 53.435547 339.30907 53.317645 338.05469 53.083984 C 336.8003 52.824362 335.7219 52.435261 334.82031 51.916016 C 333.87952 51.39677 333.29184 50.85242 333.05664 50.28125 C 332.82144 49.71008 332.70312 48.969227 332.70312 48.060547 C 332.70312 46.684546 333.25202 45.580793 334.34961 44.75 C 335.4864 43.893245 337.11369 43.244093 339.23047 42.802734 C 340.95525 42.439263 343.48249 42.128763 346.81445 41.869141 C 350.14642 41.583556 353.2439 41.362805 356.10547 41.207031 z "
       transform="matrix(0.26458333,0,0,0.26458333,54.340748,139.14671)" />
  </g>
</svg>
