<?xml version="1.0" encoding="UTF-8" standalone="no"?>
<!-- Created with Inkscape (http://www.inkscape.org/) -->

<svg
   width="101.82476mm"
   height="21.066933mm"
   viewBox="0 0 101.82476 21.066933"
   version="1.1"
   id="svg5"
   inkscape:version="1.1.2 (0a00cf5339, 2022-02-04)"
   sodipodi:docname="o_mne.svg"
   xmlns:inkscape="http://www.inkscape.org/namespaces/inkscape"
   xmlns:sodipodi="http://sodipodi.sourceforge.net/DTD/sodipodi-0.dtd"
   xmlns="http://www.w3.org/2000/svg"
   xmlns:svg="http://www.w3.org/2000/svg">
  <sodipodi:namedview
     id="namedview7"
     pagecolor="#505050"
     bordercolor="#eeeeee"
     borderopacity="1"
     inkscape:pageshadow="0"
     inkscape:pageopacity="0"
     inkscape:pagecheckerboard="0"
     inkscape:document-units="mm"
     showgrid="false"
     inkscape:zoom="0.69664703"
     inkscape:cx="167.22959"
     inkscape:cy="46.652033"
     inkscape:window-width="1850"
     inkscape:window-height="1016"
     inkscape:window-x="0"
     inkscape:window-y="0"
     inkscape:window-maximized="1"
     inkscape:current-layer="layer1"
     fit-margin-top="0"
     fit-margin-left="0"
     fit-margin-right="0"
     fit-margin-bottom="0" />
  <defs
     id="defs2" />
  <g
     inkscape:label="Layer 1"
     inkscape:groupmode="layer"
     id="layer1"
     transform="translate(-60.803538,-136.03156)">
    <path
       id="text3452"
       style="font-style:normal;font-variant:normal;font-weight:normal;font-stretch:normal;font-size:27.9811px;line-height:1.25;font-family:Gargi;-inkscape-font-specification:Gargi;opacity:0.16;fill:#000000;fill-opacity:0;stroke:#000000;stroke-width:2.26771657;stroke-miterlimit:4;stroke-dasharray:none;stroke-opacity:1"
       d="M 41.367188 0.75585938 C 28.695159 0.75585938 18.757459 4.2641646 11.556641 11.28125 C 4.355822 18.264761 0.75585938 27.782666 0.75585938 39.835938 C 0.75585938 51.788485 4.355822 61.291137 11.556641 68.341797 C 18.757459 75.358882 28.695159 78.867188 41.367188 78.867188 C 54.074514 78.867188 64.027697 75.358882 71.228516 68.341797 C 78.429334 61.291137 82.029297 51.788485 82.029297 39.835938 C 82.029297 27.782666 78.411898 18.264761 71.175781 11.28125 C 63.939665 4.2641646 54.003918 0.75585938 41.367188 0.75585938 z M 41.419922 14.908203 C 43.961387 14.908203 46.396886 15.361065 48.726562 16.267578 C 51.091537 17.174092 53.174405 18.633963 54.974609 20.648438 C 56.739516 22.595763 58.167477 25.148678 59.261719 28.304688 C 60.355961 31.460697 60.904297 35.288117 60.904297 39.787109 C 60.904297 43.983931 60.427659 47.64319 59.474609 50.765625 C 58.52156 53.854486 57.056773 56.539195 55.080078 58.822266 C 53.315172 60.83674 51.24974 62.331025 48.884766 63.304688 C 46.519791 64.244775 44.031984 64.714844 41.419922 64.714844 C 38.80786 64.714844 36.3181 64.244775 33.953125 63.304688 C 31.58815 62.3646 29.524672 60.904728 27.759766 58.923828 C 25.994859 56.942928 24.564945 54.391966 23.470703 51.269531 C 22.411759 48.113522 21.882812 44.301355 21.882812 39.835938 C 21.882812 35.471243 22.429195 31.643824 23.523438 28.353516 C 24.652978 25.029633 26.100328 22.429004 27.865234 20.548828 C 29.771333 18.534354 31.854201 17.089736 34.113281 16.216797 C 36.40766 15.343858 38.843158 14.908203 41.419922 14.908203 z M 354.97266 18.986328 C 344.48911 18.986328 336.22934 21.722657 330.19336 27.195312 C 324.19268 32.634393 321.19141 40.021738 321.19141 49.355469 C 321.19141 58.789923 324.36899 66.058775 330.72266 71.162109 C 337.07632 76.265444 346.21962 78.816406 358.15039 78.816406 C 362.77445 78.816406 366.99249 78.447625 370.80469 77.708984 C 374.61689 76.970344 378.67605 75.777966 382.98242 74.132812 L 382.98242 59.578125 L 380.86328 59.578125 C 378.6748 61.15613 375.69292 62.633208 371.91602 64.009766 C 368.13912 65.386323 364.23883 66.076172 360.21484 66.076172 C 353.86118 66.076172 349.04249 64.901001 345.75977 62.550781 C 342.51234 60.200561 340.74723 56.808797 340.46484 52.376953 L 384.09375 52.376953 L 384.09375 46.03125 C 384.09375 37.301861 381.65825 30.619619 376.78711 25.986328 C 371.91597 21.319463 364.64434 18.986328 354.97266 18.986328 z M 171.98633 19.1875 C 168.35062 19.1875 165.03354 19.877349 162.0332 21.253906 C 159.03286 22.630464 155.8921 24.543197 152.60938 26.994141 L 152.60938 20.75 L 133.54688 20.75 L 133.54688 77.306641 L 152.60938 77.306641 L 152.60938 37.21875 C 154.0213 36.41296 155.60814 35.656238 157.37305 34.951172 C 159.13795 34.212531 160.95732 33.84375 162.82812 33.84375 C 165.1578 33.84375 166.95778 34.128451 168.22852 34.699219 C 169.53455 35.236412 170.50526 36.109675 171.14062 37.318359 C 171.77599 38.527044 172.16349 40.105409 172.30469 42.052734 C 172.44588 43.966485 172.51562 46.29962 172.51562 49.052734 L 172.51562 77.306641 L 191.68359 77.306641 L 191.68359 37.21875 C 193.87208 36.010065 195.72437 35.154009 197.24219 34.650391 C 198.76001 34.113197 200.31393 33.84375 201.90234 33.84375 C 204.26732 33.84375 206.10217 34.128451 207.4082 34.699219 C 208.71423 35.236412 209.66751 36.109675 210.26758 37.318359 C 210.90294 38.527044 211.27301 40.088203 211.37891 42.001953 C 211.5201 43.915704 211.5918 46.266045 211.5918 49.052734 L 211.5918 77.306641 L 230.75781 77.306641 L 230.75781 40.492188 C 230.75781 33.6094 229.08184 28.337363 225.72852 24.677734 C 222.41049 21.018106 217.53949 19.1875 211.11523 19.1875 C 207.65602 19.1875 204.1258 20.060763 200.52539 21.806641 C 196.92498 23.552518 193.21845 25.95448 189.40625 29.009766 C 187.71194 25.786607 185.36558 23.352185 182.36523 21.707031 C 179.36489 20.028303 175.90442 19.1875 171.98633 19.1875 z M 287.51758 19.1875 C 283.70538 19.1875 280.22942 19.860142 277.08789 21.203125 C 273.98166 22.546108 270.73432 24.476048 267.3457 26.994141 L 267.3457 20.75 L 248.2832 20.75 L 248.2832 77.306641 L 267.3457 77.306641 L 267.3457 37.21875 C 269.42829 36.04364 271.35228 35.187584 273.11719 34.650391 C 274.91739 34.113197 276.68055 33.84375 278.41016 33.84375 C 280.84573 33.84375 282.73484 34.128451 284.07617 34.699219 C 285.4528 35.269986 286.49521 36.177663 287.20117 37.419922 C 287.80124 38.494308 288.22362 40.172007 288.4707 42.455078 C 288.71779 44.704574 288.8418 46.970835 288.8418 49.253906 L 288.8418 77.306641 L 308.00781 77.306641 L 308.00781 40.492188 C 308.00781 33.407953 306.19039 28.086248 302.55469 24.527344 C 298.95428 20.968439 293.94184 19.1875 287.51758 19.1875 z M 353.4375 30.318359 C 357.39089 30.318359 360.30303 31.275703 362.17383 33.189453 C 364.04463 35.103204 365.03278 37.956073 365.13867 41.75 L 340.41211 41.75 C 340.69449 37.754626 342.01784 34.850136 344.38281 33.037109 C 346.74779 31.224083 349.76649 30.318359 353.4375 30.318359 z "
       transform="matrix(0.26458333,0,0,0.26458333,60.803538,136.03156)" />
  </g>
</svg>
