<?xml version="1.0" encoding="UTF-8" standalone="no"?>
<!-- Created with Inkscape (http://www.inkscape.org/) -->

<svg
   width="116.68884mm"
   height="22.114288mm"
   viewBox="0 0 116.68884 22.114289"
   version="1.1"
   id="svg5"
   inkscape:version="1.1.2 (0a00cf5339, 2022-02-04)"
   sodipodi:docname="sluzby.svg"
   xmlns:inkscape="http://www.inkscape.org/namespaces/inkscape"
   xmlns:sodipodi="http://sodipodi.sourceforge.net/DTD/sodipodi-0.dtd"
   xmlns="http://www.w3.org/2000/svg"
   xmlns:svg="http://www.w3.org/2000/svg">
  <sodipodi:namedview
     id="namedview7"
     pagecolor="#505050"
     bordercolor="#eeeeee"
     borderopacity="1"
     inkscape:pageshadow="0"
     inkscape:pageopacity="0"
     inkscape:pagecheckerboard="0"
     inkscape:document-units="mm"
     showgrid="false"
     inkscape:zoom="0.69664703"
     inkscape:cx="197.37398"
     inkscape:cy="40.910244"
     inkscape:window-width="1850"
     inkscape:window-height="1016"
     inkscape:window-x="0"
     inkscape:window-y="0"
     inkscape:window-maximized="1"
     inkscape:current-layer="layer1"
     fit-margin-top="0"
     fit-margin-left="0"
     fit-margin-right="0"
     fit-margin-bottom="0" />
  <defs
     id="defs2" />
  <g
     inkscape:label="Layer 1"
     inkscape:groupmode="layer"
     id="layer1"
     transform="translate(-53.080604,-137.91026)">
    <path
       id="text13223"
       style="font-style:normal;font-weight:normal;font-size:25.9296px;line-height:1.25;font-family:sans-serif;opacity:0.16;mix-blend-mode:normal;fill:#000000;fill-opacity:0;stroke:#000000;stroke-width:2.26772;stroke-miterlimit:4;stroke-dasharray:none;stroke-opacity:1"
       d="M 216.92773 1.1347656 L 235.80273 16.439453 L 250.56055 16.439453 L 269.43555 1.1347656 L 254.14844 1.1347656 L 243.32812 9.9746094 L 232.45117 1.1347656 L 216.92773 1.1347656 z M 90.273438 5.8066406 L 90.273438 66.402344 L 111.44141 66.402344 L 111.44141 5.8066406 L 90.273438 5.8066406 z M 289.07422 5.8066406 L 289.07422 66.402344 L 309.35938 66.402344 L 310.24219 64.222656 C 312.75096 65.209223 315.39652 65.961223 318.17969 66.480469 C 320.96286 66.999714 324.19805 67.259766 327.88281 67.259766 C 336.46752 67.259766 343.62061 65.091559 349.34375 60.755859 C 355.10609 56.420159 357.98633 50.813597 357.98633 43.933594 C 357.98633 36.923779 355.73256 31.431213 351.22461 27.458984 C 346.71666 23.460794 340.28896 21.462891 331.93945 21.462891 C 327.5099 21.462891 323.59005 21.99414 320.17969 23.058594 C 316.80852 24.123047 313.49575 25.513052 310.24219 27.226562 L 310.24219 5.8066406 L 289.07422 5.8066406 z M 40.824219 7.3652344 C 29.33874 7.3652344 19.929932 9.078839 12.599609 12.505859 C 5.3084864 15.906918 1.6621094 20.306878 1.6621094 25.707031 C 1.6621094 29.731184 3.2700089 33.105992 6.484375 35.832031 C 9.7379406 38.532108 15.0504 40.674114 22.419922 42.257812 C 25.634288 42.958794 29.063423 43.542445 32.708984 44.009766 C 36.393745 44.451124 39.883016 44.931926 43.175781 45.451172 C 46.311748 45.944455 48.683833 46.659108 50.291016 47.59375 C 51.937398 48.50243 52.759766 49.593083 52.759766 50.865234 C 52.759766 52.241235 52.191475 53.279487 51.054688 53.980469 C 49.957099 54.68145 48.545094 55.265101 46.820312 55.732422 C 45.409127 56.095894 43.587892 56.355945 41.353516 56.511719 C 39.119139 56.667492 37.315345 56.744141 35.943359 56.744141 C 30.612216 56.744141 25.045679 56.083842 19.244141 54.759766 C 13.481801 53.43569 8.2682664 51.538682 3.6035156 49.072266 L 1.1347656 49.072266 L 1.1347656 62.976562 C 5.838716 64.274676 10.87575 65.352229 16.246094 66.208984 C 21.655637 67.039777 27.986358 67.455078 35.238281 67.455078 C 47.782149 67.455078 57.699111 65.675972 64.990234 62.119141 C 72.320557 58.536347 75.986328 53.889435 75.986328 48.177734 C 75.986328 44.179544 74.378429 40.933785 71.164062 38.441406 C 67.988896 35.923065 63.048832 33.936309 56.345703 32.482422 C 52.935339 31.755478 49.740887 31.184928 46.761719 30.769531 C 43.82175 30.354135 40.745616 29.925734 37.53125 29.484375 C 32.631302 28.809356 29.299138 28.070456 27.535156 27.265625 C 25.771175 26.434832 24.888672 25.252477 24.888672 23.720703 C 24.888672 22.708174 25.437568 21.812071 26.535156 21.033203 C 27.632745 20.228373 28.945826 19.631622 30.474609 19.242188 C 32.199391 18.774867 33.983791 18.464367 35.826172 18.308594 C 37.707752 18.126858 39.589123 18.035156 41.470703 18.035156 C 46.801847 18.035156 52.015382 18.671208 57.111328 19.943359 C 62.246474 21.189549 66.577506 22.747904 70.105469 24.617188 L 72.515625 24.617188 L 72.515625 11.259766 C 68.399668 10.143388 63.51974 9.2210844 57.875 8.4941406 C 52.269459 7.7412346 46.586558 7.3652344 40.824219 7.3652344 z M 130.9043 22.669922 L 130.9043 51.136719 C 130.9043 56.562834 132.86324 60.665396 136.7832 63.443359 C 140.74236 66.221323 146.36903 67.609375 153.66016 67.609375 C 158.16811 67.609375 162.04722 67.104326 165.30078 66.091797 C 168.55435 65.053306 172.14254 63.547352 176.0625 61.574219 L 176.0625 66.402344 L 197.23047 66.402344 L 197.23047 22.669922 L 176.0625 22.669922 L 176.0625 53.667969 C 174.02412 54.524724 171.90611 55.173876 169.71094 55.615234 C 167.51576 56.056593 165.51802 56.277344 163.71484 56.277344 C 161.01007 56.277344 158.89207 56.056593 157.36328 55.615234 C 155.8737 55.173876 154.75651 54.474276 154.01172 53.513672 C 153.22773 52.553068 152.71957 51.344512 152.48438 49.890625 C 152.28838 48.410775 152.18945 46.568122 152.18945 44.361328 L 152.18945 22.669922 L 130.9043 22.669922 z M 213.57617 22.669922 L 213.57617 32.912109 L 246.97461 32.912109 L 212.16406 57.40625 L 212.16406 66.402344 L 274.19727 66.402344 L 274.19727 55.966797 L 239.27148 55.966797 L 273.55078 31.509766 L 273.55078 22.669922 L 213.57617 22.669922 z M 365.04297 22.669922 L 390.73828 66.091797 L 380.27148 82.447266 L 403.20312 82.447266 L 439.89453 22.669922 L 418.13867 22.669922 L 403.08594 50.943359 L 387.26953 22.669922 L 365.04297 22.669922 z M 322.47266 32.054688 C 327.6078 32.054688 331.17465 33.10604 333.17383 35.208984 C 335.17301 37.311929 336.17188 40.310737 336.17188 44.205078 C 336.17187 48.56674 334.80061 51.8387 332.05664 54.019531 C 329.31267 56.200362 325.13874 57.291016 319.5332 57.291016 C 317.61242 57.291016 315.96574 57.225515 314.59375 57.095703 C 313.22176 56.965892 311.77097 56.718941 310.24219 56.355469 L 310.24219 34.390625 C 312.16297 33.637719 314.18205 33.067169 316.29883 32.677734 C 318.41561 32.262338 320.47348 32.054688 322.47266 32.054688 z "
       transform="matrix(0.26458333,0,0,0.26458333,53.080604,137.91026)" />
  </g>
</svg>
