<?xml version="1.0" encoding="UTF-8" standalone="no"?>
<!-- Created with Inkscape (http://www.inkscape.org/) -->

<svg
   width="147.89685mm"
   height="25.957598mm"
   viewBox="0 0 147.89684 25.957598"
   version="1.1"
   id="svg5"
   inkscape:version="1.1.2 (0a00cf5339, 2022-02-04)"
   sodipodi:docname="uspechy.svg"
   xmlns:inkscape="http://www.inkscape.org/namespaces/inkscape"
   xmlns:sodipodi="http://sodipodi.sourceforge.net/DTD/sodipodi-0.dtd"
   xmlns="http://www.w3.org/2000/svg"
   xmlns:svg="http://www.w3.org/2000/svg">
  <sodipodi:namedview
     id="namedview7"
     pagecolor="#505050"
     bordercolor="#eeeeee"
     borderopacity="1"
     inkscape:pageshadow="0"
     inkscape:pageopacity="0"
     inkscape:pagecheckerboard="0"
     inkscape:document-units="mm"
     showgrid="false"
     inkscape:zoom="0.69664703"
     inkscape:cx="194.50309"
     inkscape:cy="55.264716"
     inkscape:window-width="1850"
     inkscape:window-height="1016"
     inkscape:window-x="0"
     inkscape:window-y="0"
     inkscape:window-maximized="1"
     inkscape:current-layer="layer1"
     fit-margin-top="0"
     fit-margin-left="0"
     fit-margin-right="0"
     fit-margin-bottom="0" />
  <defs
     id="defs2" />
  <g
     inkscape:label="Layer 1"
     inkscape:groupmode="layer"
     id="layer1"
     transform="translate(-54.014045,-134.06695)">
    <path
       id="text13223"
       style="font-style:normal;font-weight:normal;font-size:25.9296px;line-height:1.25;font-family:sans-serif;opacity:0.16;mix-blend-mode:normal;fill:#000000;fill-opacity:0;stroke:#000000;stroke-width:2.26772;stroke-miterlimit:4;stroke-dasharray:none;stroke-opacity:1"
       d="M 36.648438 1.1347656 L 22.125 16.439453 L 36.589844 16.439453 L 57.287109 1.9121094 L 57.287109 1.1347656 L 36.648438 1.1347656 z M 405.4375 20.332031 L 405.4375 80.929688 L 426.60547 80.929688 L 426.60547 49.929688 C 428.91824 49.021008 431.05565 48.358756 433.01562 47.943359 C 435.0148 47.527963 436.97375 47.320312 438.89453 47.320312 C 441.5993 47.320312 443.69792 47.541063 445.1875 47.982422 C 446.71628 48.423781 447.87226 49.125333 448.65625 50.085938 C 449.32264 50.91673 449.79201 52.215034 450.06641 53.980469 C 450.3408 55.719941 450.47852 57.472846 450.47852 59.238281 L 450.47852 80.929688 L 471.76367 80.929688 L 471.76367 52.460938 C 471.76367 46.982897 469.74459 42.869189 465.70703 40.117188 C 461.70867 37.365186 456.14214 35.988281 449.00781 35.988281 C 444.77426 35.988281 440.91454 36.508384 437.42578 37.546875 C 433.97622 38.585366 430.36863 40.07822 426.60547 42.025391 L 426.60547 20.332031 L 405.4375 20.332031 z M 1.1347656 22.941406 L 1.1347656 59.976562 C 1.1347656 67.116188 4.4067941 72.595655 10.953125 76.412109 C 17.538655 80.228564 27.240329 82.136719 40.058594 82.136719 C 52.876858 82.136719 62.578532 80.228564 69.164062 76.412109 C 75.749593 72.595655 79.042969 67.103088 79.042969 59.9375 L 79.042969 22.941406 L 56.345703 22.941406 L 56.345703 59.121094 C 56.345703 63.30102 55.032622 66.337176 52.40625 68.232422 C 49.819077 70.127668 45.703334 71.076172 40.058594 71.076172 C 34.335454 71.076172 30.200317 70.09032 27.652344 68.117188 C 25.104371 66.144055 23.830078 63.145247 23.830078 59.121094 L 23.830078 22.941406 L 1.1347656 22.941406 z M 287.31055 35.832031 C 275.66827 35.832031 266.4961 37.947837 259.79297 42.179688 C 253.12904 46.385576 249.79688 52.09694 249.79688 59.314453 C 249.79688 66.609853 253.32493 72.231468 260.38086 76.177734 C 267.43678 80.124 277.58843 82.097656 290.83789 82.097656 C 295.97304 82.097656 300.65707 81.811404 304.89062 81.240234 C 309.12418 80.669064 313.63367 79.746761 318.41602 78.474609 L 318.41602 67.220703 L 316.0625 67.220703 C 313.63213 68.44093 310.32131 69.583984 306.12695 70.648438 C 301.9326 71.712891 297.59961 72.244141 293.13086 72.244141 C 286.07493 72.244141 280.72564 71.334937 277.08008 69.517578 C 273.47372 67.700219 271.51282 65.079364 271.19922 61.652344 L 319.65039 61.652344 L 319.65039 56.744141 C 319.65039 49.993949 316.9447 44.828888 311.53516 41.246094 C 306.12561 37.637337 298.05123 35.832031 287.31055 35.832031 z M 128.55273 35.988281 C 118.12564 35.988281 109.89221 37.389434 103.85547 40.193359 C 97.857932 42.971323 94.859375 46.464033 94.859375 50.669922 C 94.859375 53.941169 96.310168 56.679925 99.210938 58.886719 C 102.11171 61.06755 106.56106 62.678306 112.55859 63.716797 C 114.75377 64.106231 117.18404 64.442931 119.84961 64.728516 C 122.55438 64.988138 124.69178 65.23509 126.25977 65.46875 C 129.55253 65.910109 131.7869 66.377811 132.96289 66.871094 C 134.13888 67.338415 134.72656 68.103515 134.72656 69.167969 C 134.72656 70.362233 133.72574 71.271437 131.72656 71.894531 C 129.72738 72.491664 126.65125 72.789062 122.49609 72.789062 C 119.32093 72.789062 116.34176 72.581412 113.55859 72.166016 C 110.77542 71.724657 108.28502 71.206507 106.08984 70.609375 C 103.54187 69.934356 101.56353 69.311404 100.15234 68.740234 C 98.780358 68.143102 97.564248 67.596799 96.505859 67.103516 L 94.566406 67.103516 L 94.566406 78.630859 C 97.467176 79.513577 101.30749 80.317978 106.08984 81.044922 C 110.87219 81.771866 116.20405 82.136719 122.08398 82.136719 C 132.70707 82.136719 141.07627 80.759814 147.19141 78.007812 C 153.30654 75.229849 156.36328 71.581889 156.36328 67.064453 C 156.36328 63.974942 155.03081 61.404535 152.36523 59.353516 C 149.69966 57.276534 145.58392 55.759432 140.01758 54.798828 C 137.5088 54.383432 135.00096 54.044779 132.49219 53.785156 C 130.02261 53.499571 127.70871 53.213319 125.55273 52.927734 C 121.63278 52.382527 119.14433 51.838177 118.08594 51.292969 C 117.02755 50.747761 116.49805 49.95646 116.49805 48.917969 C 116.49805 47.775629 117.65402 46.892626 119.9668 46.269531 C 122.31877 45.646437 125.20096 45.333984 128.61133 45.333984 C 132.72728 45.333984 136.78485 45.788586 140.7832 46.697266 C 144.82076 47.579983 148.407 48.736137 151.54297 50.164062 L 153.36523 50.164062 L 153.36523 39.103516 C 150.81726 38.35061 147.26981 37.649057 142.72266 37 C 138.2147 36.324981 133.49188 35.988281 128.55273 35.988281 z M 213.28125 35.988281 C 208.8517 35.988281 204.93185 36.519531 201.52148 37.583984 C 198.15032 38.648438 194.8395 40.038443 191.58594 41.751953 L 191.58594 37.195312 L 170.41797 37.195312 L 170.41797 96.972656 L 191.58594 96.972656 L 191.58594 78.748047 C 194.32991 79.708651 197.01425 80.449504 199.64062 80.96875 C 202.267 81.513958 205.46145 81.785156 209.22461 81.785156 C 213.30137 81.785156 217.12424 81.267007 220.69141 80.228516 C 224.25857 79.190025 227.45302 77.65787 230.27539 75.632812 C 232.98016 73.711604 235.15635 71.270246 236.80273 68.310547 C 238.48832 65.350847 239.33008 62.067741 239.33008 58.458984 C 239.33008 51.475132 237.03752 45.984519 232.45117 41.986328 C 227.90402 37.988138 221.51316 35.988281 213.28125 35.988281 z M 368.33594 35.988281 C 363.31839 35.988281 358.47725 36.416682 353.8125 37.273438 C 349.14775 38.130193 345.03201 39.480897 341.46484 41.324219 C 337.78008 43.271389 334.89789 45.723894 332.82031 48.683594 C 330.78193 51.643293 329.76367 55.162204 329.76367 59.238281 C 329.76367 63.10666 330.72375 66.481469 332.64453 69.363281 C 334.56531 72.245094 337.271 74.632098 340.75977 76.527344 C 344.28773 78.42259 348.42287 79.825695 353.16602 80.734375 C 357.94837 81.643055 363.22008 82.097656 368.98242 82.097656 C 373.37278 82.097656 377.37215 81.785204 380.97852 81.162109 C 384.62408 80.564977 388.11139 79.747475 391.44336 78.708984 L 391.44336 66.753906 L 388.44531 66.753906 C 387.58292 67.299114 386.64224 67.856564 385.62305 68.427734 C 384.60386 68.998904 383.42849 69.545208 382.0957 70.064453 C 380.68452 70.609661 378.90012 71.08851 376.74414 71.503906 C 374.62736 71.89334 372.23588 72.087891 369.57031 72.087891 C 363.84717 72.087891 359.41722 70.999191 356.28125 68.818359 C 353.18448 66.637528 351.63672 63.44417 351.63672 59.238281 C 351.63672 55.162204 353.14569 51.942645 356.16406 49.580078 C 359.22163 47.191549 363.57401 45.996094 369.21875 45.996094 C 371.76672 45.996094 374.0011 46.190644 375.92188 46.580078 C 377.84265 46.94355 379.60571 47.411252 381.21289 47.982422 C 382.89847 48.579554 384.31048 49.189405 385.44727 49.8125 C 386.62325 50.435595 387.62212 50.981898 388.44531 51.449219 L 391.44336 51.449219 L 391.44336 39.492188 C 388.15059 38.453696 384.60314 37.609994 380.80078 36.960938 C 376.99842 36.311881 372.84389 35.988281 368.33594 35.988281 z M 482.99414 37.195312 L 508.68945 80.617188 L 498.22461 96.972656 L 521.15625 96.972656 L 557.8457 37.195312 L 536.08984 37.195312 L 521.03711 65.46875 L 505.2207 37.195312 L 482.99414 37.195312 z M 285.60547 44.59375 C 289.99582 44.59375 293.22906 45.334603 295.30664 46.814453 C 297.38422 48.294303 298.48201 50.50181 298.59961 53.435547 L 271.14062 53.435547 C 271.45422 50.346036 272.92441 48.099229 275.55078 46.697266 C 278.17715 45.295303 281.52871 44.59375 285.60547 44.59375 z M 203.81445 46.580078 C 208.5576 46.580078 212.02748 47.541682 214.22266 49.462891 C 216.41783 51.384099 217.51562 54.472656 217.51562 58.730469 C 217.51562 63.092131 216.14436 66.364091 213.40039 68.544922 C 210.65642 70.699791 206.48054 71.777344 200.875 71.777344 C 199.30702 71.777344 197.72046 71.724943 196.11328 71.621094 C 194.5061 71.517245 192.99712 71.283394 191.58594 70.919922 L 191.58594 48.917969 C 193.50672 48.165063 195.52385 47.592559 197.64062 47.203125 C 199.7574 46.787729 201.81527 46.580078 203.81445 46.580078 z "
       transform="matrix(0.26458333,0,0,0.26458333,54.014045,134.06695)" />
  </g>
</svg>
